<svg width="306" height="229" viewBox="0 0 306 229" fill="none" xmlns="http://www.w3.org/2000/svg">
<path d="M58.6912 27.9426C78.7182 11.537 135.999 2.47852 162.135 -1.08867e-06C151.014 5.72903 131.6 26.7125 142.919 64.814C102.813 71.4725 60.588 83.5814 44.4887 88.8036C40.8783 75.3523 38.6642 44.3483 58.6912 27.9426Z" fill="#E5E5EE"/>
<path d="M58.6912 27.9426C78.7182 11.537 135.999 2.47852 162.135 -1.08867e-06C151.014 5.72903 131.6 26.7125 142.919 64.814C102.813 71.4725 60.588 83.5814 44.4887 88.8036C40.8783 75.3523 38.6642 44.3483 58.6912 27.9426Z" fill="url(#paint0_linear_1575_2559)" fill-opacity="0.36"/>
<path d="M53.5767 30.7268C54.2593 30.197 54.9731 29.7042 55.7127 29.2588C75.0609 16.4106 124.201 -5.15038 183.331 1.11794C216.142 6.44751 219.374 76.3736 216.888 110.671C213.408 139.786 215.098 193.279 249.699 174.329C232.995 192.095 198.494 202.458 183.331 205.419C149.774 221.457 83.8526 228.07 88.6252 126.215C93.1594 29.447 69.7825 20.7842 55.7127 29.2588C54.9545 29.7622 54.2421 30.2523 53.5767 30.7268Z" fill="#D2D2D2"/>
<path d="M53.5767 30.7268C54.2593 30.197 54.9731 29.7042 55.7127 29.2588C75.0609 16.4106 124.201 -5.15038 183.331 1.11794C216.142 6.44751 219.374 76.3736 216.888 110.671C213.408 139.786 215.098 193.279 249.699 174.329C232.995 192.095 198.494 202.458 183.331 205.419C149.774 221.457 83.8526 228.07 88.6252 126.215C93.1594 29.447 69.7825 20.7842 55.7127 29.2588C54.9545 29.7622 54.2421 30.2523 53.5767 30.7268Z" fill="url(#paint1_linear_1575_2559)"/>
<path d="M246.623 192.377C225.847 207.882 149 216.5 140 214.5C151.377 209.282 173.758 190.141 164.26 151.38C204.625 146.61 247.365 136.472 263.689 132C266.657 145.666 267.399 176.873 246.623 192.377Z" fill="#F1F1FA"/>
<path d="M246.623 192.377C225.847 207.882 149 216.5 140 214.5C151.377 209.282 173.758 190.141 164.26 151.38C204.625 146.61 247.365 136.472 263.689 132C266.657 145.666 267.399 176.873 246.623 192.377Z" fill="url(#paint2_linear_1575_2559)" fill-opacity="0.16"/>
<path d="M306 52.0506C280.746 62.6076 268.779 81.0823 265.952 89C259.167 61.5518 224.49 43.5464 208 37.9747C216.292 39.7342 224.019 31.6698 226.846 27.4177C248.99 25.3649 295.823 27.4177 306 52.0506Z" fill="#B18AFF"/>
<path d="M270.664 50.2913C268.677 53.8056 261.789 55.3387 255.115 52.0508C248.442 48.763 242.923 42.1341 244.909 38.6198C246.896 35.1055 260.22 35.3319 266.894 38.6198C273.568 41.9076 272.65 46.777 270.664 50.2913Z" fill="#7F3DFF"/>
<g style="mix-blend-mode:soft-light">
<path d="M306 52.0506C280.746 62.6076 268.779 81.0823 265.952 89C259.167 61.5518 224.49 43.5464 208 37.9747C216.292 39.7342 224.019 31.6698 226.846 27.4177C248.99 25.3649 295.823 27.4177 306 52.0506Z" fill="url(#paint3_radial_1575_2559)" fill-opacity="0.64"/>
</g>
<path d="M74 152.821C70.4 168.421 59.1667 176.988 54 179.321C44.1667 174.488 6 160.321 6 160.321C10.8333 155.821 21.4 143.421 25 129.821C29.5 112.821 40.5 88.821 58.5 86.321C72.9 84.321 101.167 92.1544 113.5 96.321C87 116.821 78.5 133.321 74 152.821Z" fill="#B18AFF"/>
<ellipse cx="58.6058" cy="123.023" rx="15.1661" ry="12.6384" transform="rotate(-46.5366 58.6058 123.023)" fill="#7F3DFF"/>
<g style="mix-blend-mode:soft-light">
<path d="M74 152.821C70.4 168.421 59.1667 176.988 54 179.321C44.1667 174.488 6 160.321 6 160.321C10.8333 155.821 21.4 143.421 25 129.821C29.5 112.821 40.5 88.821 58.5 86.321C72.9 84.321 101.167 92.1544 113.5 96.321C87 116.821 78.5 133.321 74 152.821Z" fill="url(#paint4_linear_1575_2559)" fill-opacity="0.46"/>
</g>
<g style="mix-blend-mode:soft-light" filter="url(#filter0_f_1575_2559)">
<path d="M74 153.821C70.4 169.421 59.1667 177.988 54 180.321C44.1667 175.488 6 161.321 6 161.321C10.8333 156.821 21.4 144.421 25 130.821C29.5 113.821 40.5 89.821 58.5 87.321C72.9 85.321 101.167 93.1544 113.5 97.321C87 117.821 78.5 134.321 74 153.821Z" fill="url(#paint5_linear_1575_2559)" fill-opacity="0.64"/>
</g>
<defs>
<filter id="filter0_f_1575_2559" x="-42" y="39" width="203.5" height="189.321" filterUnits="userSpaceOnUse" color-interpolation-filters="sRGB">
<feFlood flood-opacity="0" result="BackgroundImageFix"/>
<feBlend mode="normal" in="SourceGraphic" in2="BackgroundImageFix" result="shape"/>
<feGaussianBlur stdDeviation="24" result="effect1_foregroundBlur_1575_2559"/>
</filter>
<linearGradient id="paint0_linear_1575_2559" x1="76" y1="84.5" x2="123" y2="-10.5" gradientUnits="userSpaceOnUse">
<stop stop-opacity="0.24"/>
<stop offset="0.59375"/>
</linearGradient>
<linearGradient id="paint1_linear_1575_2559" x1="106.5" y1="-1.82024e-07" x2="209" y2="204.5" gradientUnits="userSpaceOnUse">
<stop stop-color="white"/>
<stop offset="1" stop-color="white" stop-opacity="0"/>
</linearGradient>
<linearGradient id="paint2_linear_1575_2559" x1="203.638" y1="148.985" x2="203.638" y2="297.485" gradientUnits="userSpaceOnUse">
<stop stop-opacity="0"/>
<stop offset="1"/>
</linearGradient>
<radialGradient id="paint3_radial_1575_2559" cx="0" cy="0" r="1" gradientUnits="userSpaceOnUse" gradientTransform="translate(218.5 28.5) rotate(24.5672) scale(76.9675 121.298)">
<stop stop-color="white"/>
<stop offset="1" stop-color="white" stop-opacity="0"/>
</radialGradient>
<linearGradient id="paint4_linear_1575_2559" x1="85" y1="86" x2="37" y2="179" gradientUnits="userSpaceOnUse">
<stop stop-color="white"/>
<stop offset="0.421875" stop-color="#E3E3E3" stop-opacity="0.627968"/>
<stop offset="0.765625" stop-color="#636363" stop-opacity="0.32483"/>
<stop offset="1" stop-color="white" stop-opacity="0"/>
</linearGradient>
<linearGradient id="paint5_linear_1575_2559" x1="85" y1="87" x2="37" y2="180" gradientUnits="userSpaceOnUse">
<stop stop-color="white"/>
<stop offset="0.421875" stop-color="#E3E3E3" stop-opacity="0.627968"/>
<stop offset="0.765625" stop-color="#636363" stop-opacity="0.32483"/>
<stop offset="1" stop-color="white" stop-opacity="0"/>
</linearGradient>
</defs>
</svg>
