<svg width="312" height="302" viewBox="0 0 312 302" fill="none" xmlns="http://www.w3.org/2000/svg">
<g filter="url(#filter0_d_1575_3303)">
<g filter="url(#filter1_i_1575_3303)">
<path d="M24.9519 36.3316C24.5736 34.9625 25.9602 33.4619 27.4661 33.6107L221.632 52.8038C225.931 53.2288 229.266 55.9158 230.346 59.8246L285.068 257.884C285.447 259.253 284.06 260.754 282.554 260.605L86.0667 241.182C83.2006 240.899 80.9771 239.108 80.2572 236.502L24.9519 36.3316Z" fill="#D3BDFF"/>
</g>
<g filter="url(#filter2_d_1575_3303)">
<path d="M41.415 43.6526L217.035 61.0124C219.892 61.2949 222.112 63.0769 222.838 65.6719L272.508 243.132L92.2606 225.315L41.415 43.6526Z" fill="white"/>
<path d="M41.415 43.6526L217.035 61.0124C219.892 61.2949 222.112 63.0769 222.838 65.6719L272.508 243.132L92.2606 225.315L41.415 43.6526Z" fill="url(#paint0_linear_1575_3303)" fill-opacity="0.2"/>
</g>
<path d="M140.394 133.241C143.069 128.15 149.046 118.833 151.557 122.291C154.697 126.614 147.545 129.928 159.739 126.378C171.933 122.829 168.053 126.202 175.551 127.98C183.049 129.758 175.073 127.151 197.426 128.874C215.309 130.251 223.591 126.729 225.497 124.795" stroke="#7A7E80" stroke-width="3" stroke-linecap="round"/>
<rect x="1.85017" y="1.31985" width="24.8895" height="24.5475" transform="matrix(1.01329 -0.0264294 0.220152 0.906332 84.8223 117.22)" stroke="#E3E5E5" stroke-width="3"/>
<path d="M91.3222 126.222C93.7482 130.822 99.8693 138.9 104.946 134.414C111.291 128.807 115.392 111.89 127.16 110.566" stroke="#FCAC12" stroke-width="6" stroke-linecap="round" stroke-linejoin="round"/>
<path d="M146.805 162.224C149.592 157.173 154.9 158.701 159.719 158.225C167.289 157.478 162.853 148.99 170.145 150.786C178.497 152.843 174.529 155.751 181.956 157.694C189.383 159.638 181.5 156.853 203.727 159.057C221.509 160.82 229.845 157.462 231.791 155.563" stroke="#7A7E80" stroke-width="3" stroke-linecap="round"/>
<rect x="1.87515" y="1.31051" width="24.8895" height="24.5556" transform="matrix(1.01329 -0.0264294 0.23681 0.900101 94.5734 149.998)" stroke="#E3E5E5" stroke-width="3"/>
<path d="M155.727 195.317C158.915 190.484 164.055 192.435 168.877 192.343C176.453 192.198 175.139 193.501 182.226 195.879C190.343 198.602 183.783 191.045 190.992 193.582C198.201 196.118 190.609 192.703 212.486 196.677C229.988 199.857 238.542 197.16 240.631 195.414" stroke="#7A7E80" stroke-width="3" stroke-linecap="round"/>
<rect x="1.87515" y="1.31051" width="24.8895" height="24.5556" transform="matrix(1.01329 -0.0264294 0.23681 0.900101 103.491 183.387)" stroke="#E3E5E5" stroke-width="3"/>
<path d="M96.1256 84.9529C96.113 84.8665 96.1512 84.8361 96.2402 84.8618C96.3459 84.8668 96.4334 84.8602 96.5029 84.8421C96.2135 84.6566 95.9789 84.42 95.7991 84.1324C95.6095 83.8229 95.3652 83.5644 95.0659 83.357C95.0699 83.2498 95.0607 83.1421 95.0383 83.0337C95.0423 82.9265 95.1417 82.8883 95.3364 82.919C95.0423 82.4328 94.8553 81.9838 94.7754 81.5722C94.6956 81.1605 94.6783 80.7733 94.7236 80.4105C94.7953 80.0489 94.8984 79.6996 95.0327 79.3625C95.1837 79.0048 95.3215 78.6464 95.446 78.2874C95.6643 78.2548 95.8193 78.2836 95.9112 78.3739C95.9933 78.4422 96.076 78.4246 96.1593 78.3212C96.4745 78.1001 96.6479 77.8507 96.6794 77.5731C96.7012 77.2736 96.634 76.9484 96.4778 76.5975C96.4616 76.0386 96.4768 75.492 96.5232 74.9575C96.5863 74.4023 96.7086 73.8929 96.89 73.4293C97.0714 72.9656 97.3085 72.569 97.6013 72.2395C97.8844 71.888 98.2461 71.6261 98.6866 71.4538C98.9392 71.2082 99.2941 70.9889 99.7511 70.796C100.235 70.6043 100.769 70.4686 101.354 70.3891C101.956 70.2889 102.6 70.2551 103.287 70.2877C103.964 70.2984 104.622 70.3834 105.262 70.5426C105.414 70.5927 105.483 70.5745 105.471 70.4881C105.448 70.3797 105.49 70.328 105.596 70.333C106.975 70.5273 108.248 70.8025 109.415 71.1585C110.608 71.5157 111.697 71.986 112.681 72.5694C113.476 73.2512 114.268 73.9865 115.059 74.7754C115.84 75.5424 116.535 76.3482 117.144 77.1929C117.77 78.0169 118.264 78.8669 118.629 79.7429C118.993 80.6188 119.159 81.4854 119.127 82.3426C118.632 83.2636 117.856 83.9888 116.799 84.5182C115.732 85.0257 114.52 85.4404 113.164 85.7623C111.824 86.0636 110.389 86.296 108.859 86.4594C107.355 86.6241 105.9 86.8126 104.495 87.025C104.785 87.6183 105.068 88.2543 105.345 88.9329C105.611 89.5896 105.817 90.2541 105.961 90.9264C106.122 91.5781 106.198 92.215 106.191 92.8372C106.21 93.4607 106.104 94.0352 105.873 94.5609C105.334 94.5139 104.799 94.5314 104.267 94.6134C103.761 94.6967 103.308 94.7825 102.908 94.8709C102.648 94.7512 102.387 94.6315 102.127 94.5118C101.903 94.4153 101.641 94.3492 101.341 94.3134C101.303 94.054 101.102 93.7761 100.737 93.4797C100.399 93.1846 100.052 92.8998 99.697 92.6253C99.3588 92.3302 99.0914 92.0491 98.895 91.7822C98.7152 91.4946 98.7614 91.2499 99.0336 91.0482C98.7539 90.8846 98.5408 90.6384 98.3943 90.3094C98.5391 90.4021 98.6907 90.4523 98.8492 90.4598C98.6206 90.0625 98.4634 89.5935 98.3778 89.0528C98.3186 88.5133 98.2246 87.9829 98.0959 87.4616C97.9839 86.9196 97.7906 86.4274 97.516 85.985C97.2317 85.5207 96.7683 85.1767 96.1256 84.9529ZM103 77.7446C103.002 77.9808 103.007 78.1958 103.016 78.3894C103.041 78.5623 103.048 78.7236 103.037 78.8734C103.027 79.0231 103.002 79.1723 102.965 79.3208C102.954 79.4705 102.94 79.6416 102.922 79.8339C103.034 79.968 103.183 80.0717 103.371 80.1451C103.559 80.2184 103.708 80.3221 103.82 80.4562C104.121 80.3202 104.442 80.2282 104.783 80.1799C105.114 80.1098 105.454 80.0615 105.804 80.0353C106.155 80.009 106.5 79.9717 106.841 79.9235C107.181 79.8753 107.515 79.7838 107.843 79.6491C108.171 79.5144 108.527 79.4132 108.91 79.3456C109.311 79.2573 109.698 79.1683 110.072 79.0788C110.445 78.9892 110.801 78.888 111.139 78.7752C111.467 78.6406 111.722 78.4595 111.905 78.2321C111.409 77.9294 110.742 77.6508 109.904 77.3964C109.067 77.1419 108.203 76.9721 107.311 76.8868C106.437 76.7809 105.598 76.7839 104.794 76.896C104.017 77.0094 103.419 77.2923 103 77.7446Z" fill="#7A7E80"/>
<path d="M136.349 95.5901C135.698 95.7524 134.98 95.9115 134.196 96.0674C133.412 96.2234 132.584 96.2807 131.713 96.2393C130.392 96.1765 129.226 95.8528 128.216 95.2681C127.977 95.0206 127.785 94.8505 127.64 94.7578C127.522 94.6663 127.403 94.5748 127.285 94.4833C127.183 94.3711 127.08 94.2267 126.976 94.05C126.522 93.7279 126.115 93.3651 125.754 92.9615C125.384 92.5361 125.066 92.1131 124.801 91.6927C124.553 91.2515 124.345 90.8123 124.176 90.3749C124.033 89.9388 123.94 89.5265 123.896 89.138C123.91 89.0528 123.898 88.9664 123.858 88.8786C123.846 88.7922 123.828 88.6947 123.806 88.5863C123.755 88.2405 123.71 87.9056 123.669 87.5816C123.654 87.2589 123.699 86.982 123.803 86.7508C123.61 86.5484 123.512 86.3291 123.51 86.0929C123.508 85.8566 123.53 85.643 123.574 85.4519C123.573 84.6361 123.564 83.9487 123.548 83.3898C123.548 82.8102 123.554 82.2416 123.564 81.6839C123.573 80.7184 123.562 79.7625 123.528 78.8164C123.495 77.8703 123.388 76.8455 123.206 75.7421C123.369 75.6425 123.493 75.5732 123.579 75.5344C123.718 75.4981 123.836 75.4714 123.932 75.4545C124.495 75.6745 125.138 75.8982 125.86 76.1257C126.572 76.3313 127.139 76.4441 127.562 76.4642C127.822 76.5839 127.993 76.6779 128.075 76.7462C128.147 76.7925 128.22 76.8389 128.292 76.8853C128.71 77.1842 129.093 77.4922 129.441 77.8093C129.779 78.1044 130.016 78.4913 130.151 78.97C130.081 79.1599 130.006 79.2529 129.927 79.2492C129.99 79.6815 130.011 80.0474 129.989 80.3469C129.993 80.6477 129.985 80.9478 129.963 81.2473C129.925 81.5675 129.899 81.8883 129.887 82.2097C129.875 82.5312 129.924 82.9306 130.033 83.4081C129.976 83.5127 129.941 83.6076 129.927 83.6929C129.94 83.7793 129.944 83.8761 129.94 83.9833C129.936 84.0904 129.924 84.2079 129.903 84.3357C129.899 84.4429 129.851 84.5372 129.758 84.6186C129.932 85.185 130.005 85.6393 129.977 85.9814C129.974 86.3248 129.959 86.6675 129.93 87.0096C129.896 87.6306 129.889 88.2528 129.908 88.8762C129.953 89.5009 130.13 90.2177 130.439 91.0267C130.551 90.9891 130.66 90.9728 130.766 90.9778C130.898 90.9841 131.017 90.9897 131.123 90.9948C131.361 91.0061 131.653 91.0521 131.999 91.133C132.635 90.8197 133.401 90.6522 134.296 90.6303C135.218 90.6097 136.136 90.6104 137.051 90.6324C137.421 90.6499 137.79 90.6675 138.16 90.6851C138.53 90.7026 138.864 90.697 139.161 90.6682C139.448 90.7892 139.622 90.8619 139.685 90.8863C139.764 90.8901 139.87 90.8951 140.002 90.9014C140.187 90.9101 140.35 90.9286 140.492 90.9568C140.916 91.2131 141.298 91.403 141.638 91.5265C141.977 91.6499 142.325 91.7631 142.681 91.8658C143.011 91.9674 143.332 92.0792 143.645 92.2014C143.974 92.303 144.31 92.4477 144.653 92.6357L145.56 94.0634C145.833 94.2696 145.971 94.4049 145.973 94.4695C146.052 94.6449 146.057 94.774 145.991 94.8567L146.231 95.2223C145.864 95.2693 145.621 95.3329 145.502 95.4131C145.408 95.4945 145.32 95.5869 145.237 95.6903C145.036 95.7022 144.882 95.7057 144.776 95.7006C144.697 95.6969 144.618 95.6931 144.539 95.6893C144.169 95.6718 143.744 95.7053 143.265 95.7898C142.463 95.5586 141.68 95.4247 140.914 95.3883C140.623 95.3745 140.324 95.3711 140.017 95.3779C139.71 95.3848 139.403 95.3917 139.095 95.3986C138.798 95.4274 138.482 95.4446 138.149 95.4502C137.842 95.4571 137.516 95.4523 137.173 95.436L136.349 95.5901Z" fill="#7A7E80"/>
<path d="M169.038 94.7924C169.045 95.1577 168.979 95.5302 168.837 95.9099C168.713 96.2689 168.508 96.5919 168.222 96.8788C167.952 97.1451 167.611 97.365 167.197 97.5385C166.783 97.7121 166.303 97.7966 165.758 97.7922C165.386 97.7101 165.114 97.622 164.942 97.528C164.807 97.4572 164.659 97.3858 164.498 97.3137C164.399 97.2661 164.305 97.2294 164.216 97.2037C164.144 97.1574 164.076 97.122 164.014 97.0975L163.465 96.9105L163.433 96.4903C163.408 96.3174 163.336 96.1852 163.218 96.0937C163.09 95.9803 162.868 95.8302 162.552 95.6435C162.443 95.5739 162.335 95.5043 162.226 95.4348C162.118 95.3652 162.022 95.2963 161.94 95.228L160.988 94.571L161.956 94.3915C162.548 94.2694 162.896 94.0927 163 93.8615C163.13 93.6316 163.042 93.2302 162.735 92.6575C162.168 92.5447 161.714 92.5124 161.373 92.5606C161.059 92.6101 160.737 92.6699 160.406 92.7401C159.979 92.8271 159.534 92.9026 159.072 92.9665C158.625 93.0097 158.112 93.0175 157.531 92.9899C157.319 92.9798 157.121 92.9704 156.936 92.9616C156.742 92.9309 156.534 92.8996 156.313 92.8676L155.887 92.783C155.727 92.5393 155.615 92.4052 155.553 92.3807C155.48 92.3343 155.408 92.288 155.336 92.2416C155.155 92.1257 154.946 91.9762 154.709 91.7932C154.489 91.5896 154.356 91.3471 154.308 91.0658C154.088 90.8621 153.921 90.661 153.806 90.4623C153.765 90.718 153.768 90.9865 153.816 91.2678L153.804 91.5892L153.437 91.6362C153.394 91.6556 153.379 91.7086 153.391 91.795C153.394 91.8596 153.406 91.9138 153.425 91.9576L153.476 92.5075C153.443 92.5488 153.409 92.5902 153.376 92.6315C153.333 92.6509 153.295 92.6813 153.262 92.7227C153.297 92.9175 153.318 93.1118 153.327 93.3054C153.336 93.499 153.339 93.6817 153.338 93.8533C153.333 94.1322 153.341 94.4116 153.363 94.6917C153.4 94.9511 153.491 95.213 153.635 95.4775L153.637 95.8318C153.564 95.9571 153.468 96.0598 153.348 96.14C153.219 96.1983 153.09 96.2566 152.96 96.3148C152.927 96.3562 152.867 96.3963 152.781 96.4351C152.712 96.4533 152.656 96.4721 152.613 96.4915L152.655 96.8477L152.209 96.8909C151.938 96.921 151.741 96.9438 151.619 96.9595C151.523 96.9764 151.395 96.9811 151.237 96.9736L150.826 96.9218C150.448 96.7107 150.155 96.5465 149.947 96.4293C149.73 96.2902 149.492 96.1608 149.232 96.0411C148.877 95.7666 148.657 95.563 148.572 95.4301C148.487 95.2973 148.406 95.1754 148.331 95.0645C148.22 94.9304 148.145 94.8195 148.106 94.7318C148.04 94.6428 147.971 94.5751 147.899 94.5287L147.208 94.1095L147.512 93.8342L147.303 93.2768C147.333 92.1834 147.409 91.1352 147.531 90.132C147.68 89.1301 147.832 88.1069 147.987 87.0625C148.043 86.7216 148.084 86.3801 148.113 86.038C148.168 85.6972 148.223 85.3563 148.278 85.0154C148.223 84.9484 148.175 84.871 148.136 84.7833C148.097 84.6956 148.08 84.5981 148.084 84.491C148.208 84.132 148.299 83.8143 148.357 83.538C148.406 83.2397 148.454 82.9415 148.502 82.6432C148.547 82.2804 148.597 81.9286 148.653 81.5878C148.734 81.2482 148.864 80.9001 149.041 80.5436L149.572 80.3434C149.642 80.3253 149.725 80.3077 149.82 80.2908C149.907 80.252 150.016 80.2357 150.148 80.242L150.771 80.336C151.384 80.086 151.856 79.722 152.186 79.244C152.506 78.744 152.796 78.1459 153.055 77.4498L153.246 77.0081L153.878 77.2957C154.039 77.3678 154.254 77.4424 154.521 77.5195C154.778 77.5746 155.053 77.6414 155.347 77.7197C155.861 77.83 156.354 77.9501 156.826 78.0798C157.297 78.2095 157.714 78.3903 158.076 78.6222C158.39 78.9806 158.6 79.2482 158.705 79.4249C158.809 79.6016 158.927 79.7789 159.058 79.9568C159.303 80.3334 159.535 80.7094 159.754 81.0847C159.999 81.4613 160.238 81.8805 160.469 82.3423C160.767 82.7214 161.039 83.0993 161.284 83.4759C161.546 83.8318 161.8 84.198 162.045 84.5746C162.411 85.1072 162.773 85.6289 163.13 86.1396C163.476 86.6283 163.853 87.097 164.26 87.5457C164.471 87.5557 164.608 87.573 164.671 87.5974C164.783 87.5598 164.901 87.5332 165.023 87.5175C165.172 87.5031 165.334 87.4894 165.509 87.4762L165.93 87.464L166.235 87.8005C166.31 87.9114 166.491 88.0274 166.778 88.1483C167.131 88.1865 167.411 88.2643 167.618 88.3814C167.816 88.4767 168.005 88.5823 168.186 88.6982C168.331 88.791 168.466 88.8618 168.591 88.9106L169.273 89.1363L169.176 89.6146C169.088 89.9969 168.875 90.3625 168.54 90.7114C168.22 91.0397 167.811 91.3101 167.311 91.5225C167.396 91.6553 167.467 91.7875 167.526 91.9191C167.601 92.03 167.694 92.1525 167.806 92.2866C168.051 92.6632 168.288 93.0501 168.517 93.4474C168.745 93.8446 168.926 94.2504 169.059 94.6645L169.038 94.7924ZM155.053 88.5573C155.826 88.5511 156.519 88.5411 157.134 88.5274C157.765 88.4929 158.447 88.4288 159.181 88.3348C158.703 87.6681 158.203 86.9789 157.679 86.267C157.145 85.5333 156.603 84.8098 156.053 84.0968L155.962 84.4144C155.639 84.8499 155.353 85.3408 155.105 85.8871C154.883 86.4348 154.713 86.9526 154.594 87.4407C154.524 87.6306 154.453 87.8204 154.382 88.0103C154.312 88.2001 154.254 88.3906 154.21 88.5817C154.359 88.5673 154.499 88.5632 154.631 88.5695C154.79 88.577 154.93 88.573 155.053 88.5573Z" fill="#7A7E80"/>
<path d="M179.964 92.1557C179.745 92.1883 179.627 92.3008 179.61 92.4931C179.582 92.6636 179.559 92.845 179.542 93.0373C179.55 93.2309 179.541 93.4129 179.513 93.5834C179.502 93.7331 179.404 93.8036 179.22 93.7948C179.271 93.969 179.26 94.1188 179.187 94.2441C179.14 94.3706 179.098 94.5082 179.06 94.6567C179.013 94.7832 179.002 94.933 179.028 95.1059C179.043 95.2569 179.153 95.4446 179.356 95.6689C179.203 95.7905 179.154 95.9706 179.209 96.2093C179.263 96.4481 179.3 96.6752 179.318 96.8908C179.363 97.1076 179.34 97.2889 179.25 97.4349C179.16 97.5809 178.899 97.6329 178.466 97.5909C178.426 97.6749 178.437 97.7291 178.5 97.7535C178.563 97.7779 178.636 97.8566 178.721 97.9894C178.411 97.9318 178.192 97.9321 178.062 97.9903C177.969 98.0718 177.822 98.1184 177.62 98.1303C177.06 97.9749 176.535 97.7245 176.045 97.3793C175.581 97.0352 175.13 96.6596 174.69 96.2523C174.267 95.8243 173.856 95.3969 173.46 94.9702C173.089 94.5447 172.743 94.1741 172.422 93.8583C172.393 93.6208 172.304 93.3912 172.154 93.1693C171.993 92.9256 171.813 92.7238 171.613 92.564C171.891 90.3447 172.221 87.9775 172.6 85.4625C172.98 82.9474 173.296 80.4615 173.546 78.0047C174.242 78.2309 174.939 78.4894 175.637 78.7802C176.352 79.0503 177.02 79.3611 177.642 79.7127C178.291 80.0655 178.884 80.4694 179.423 80.9243C179.952 81.3573 180.386 81.8395 180.726 82.3708C180.732 82.4999 180.691 82.5516 180.601 82.5259C180.529 82.4795 180.481 82.488 180.458 82.5513C180.612 82.666 180.699 82.7452 180.719 82.7891C180.765 82.8342 180.784 82.8781 180.777 82.9207C180.797 82.9645 180.826 83.0303 180.865 83.118C180.894 83.1838 180.978 83.2844 181.116 83.4198C181 83.3928 180.926 83.4 180.893 83.4414C180.886 83.484 180.807 83.4802 180.655 83.4301C180.868 83.6763 180.982 83.875 180.998 84.026C181.04 84.1782 181.05 84.3183 181.03 84.4461C180.999 84.552 180.992 84.6804 181.007 84.8314C181.013 84.9605 181.105 85.1366 181.281 85.3597C181.202 85.3559 181.146 85.3747 181.113 85.416C181.096 85.4367 181.084 85.4684 181.077 85.511C181.061 85.5316 181.036 85.5626 181.002 85.604C180.986 85.6247 180.933 85.6222 180.844 85.5965C181.138 86.0827 181.379 86.5665 181.568 87.0477C181.756 87.5289 181.949 88.0211 182.148 88.5242C182.362 89.0067 182.605 89.5227 182.876 90.0723C183.136 90.5998 183.473 91.1525 183.885 91.7302C184.631 91.3149 185.12 90.7585 185.353 90.0611C185.612 89.365 185.713 88.5755 185.656 87.6927C185.625 86.8111 185.473 85.8593 185.199 84.8373C184.925 83.8154 184.654 82.7721 184.387 81.7075C184.537 81.5215 184.615 81.289 184.62 81.0102C184.625 80.7313 184.612 80.4409 184.581 80.1389C184.54 79.815 184.504 79.502 184.473 79.2C184.432 78.876 184.432 78.5862 184.474 78.3306C184.89 78.3933 185.269 78.5186 185.611 78.7066C185.97 78.8739 186.312 79.0619 186.638 79.2706C186.954 79.4574 187.283 79.6447 187.625 79.8327C187.957 79.9988 188.332 80.1132 188.747 80.1758C189.23 80.5637 189.682 80.9394 190.102 81.3028C190.523 81.6663 190.86 82.0473 191.116 82.4458C191.062 82.6149 191.044 82.8073 191.062 83.0229C191.107 83.2396 191.139 83.4558 191.157 83.6714C191.175 83.8869 191.163 84.0902 191.118 84.2813C191.064 84.4505 190.948 84.5952 190.769 84.7155C190.943 85.282 191.072 85.8033 191.155 86.2795C191.254 86.735 191.34 87.1899 191.413 87.6442C191.513 88.0997 191.635 88.5778 191.78 89.0785C191.916 89.5572 192.129 90.0932 192.419 90.6866C192.432 91.181 192.447 91.7076 192.463 92.2665C192.479 92.8254 192.524 93.332 192.597 93.7863C192.301 94.0513 192.122 94.3756 192.06 94.759C191.998 95.1425 191.923 95.5253 191.835 95.9075C191.768 95.9902 191.712 96.009 191.666 95.9639C191.62 95.9188 191.513 95.8815 191.345 95.8521C191.41 95.941 191.439 96.0068 191.432 96.0494C191.426 96.092 191.406 96.134 191.372 96.1754C191.356 96.196 191.349 96.2387 191.352 96.3032C191.381 96.369 191.446 96.458 191.548 96.5701C191.237 96.6841 190.99 96.8549 190.806 97.0823C190.623 97.3097 190.404 97.514 190.148 97.6951C189.919 97.8774 189.582 97.9901 189.135 98.0333C188.716 98.0778 188.087 97.9728 187.25 97.7184C185.874 97.009 184.573 96.2066 183.347 95.3111C182.147 94.4169 181.019 93.3651 179.964 92.1557Z" fill="#7A7E80"/>
<g filter="url(#filter3_i_1575_3303)">
<path d="M82.1513 33.9007C80.3117 28.3946 85.9218 22.0771 92.1079 22.6886L155.515 28.9564C166.458 30.0381 175.099 36.6241 178.353 46.3641L181.378 55.419C183.218 60.9251 177.608 67.2426 171.422 66.6312L108.014 60.3634C97.0711 59.2817 88.4308 52.6957 85.1766 42.9557L82.1513 33.9007Z" fill="#8F57FF"/>
</g>
</g>
<defs>
<filter id="filter0_d_1575_3303" x="-23.1111" y="6.64746" width="356.242" height="333.968" filterUnits="userSpaceOnUse" color-interpolation-filters="sRGB">
<feFlood flood-opacity="0" result="BackgroundImageFix"/>
<feColorMatrix in="SourceAlpha" type="matrix" values="0 0 0 0 0 0 0 0 0 0 0 0 0 0 0 0 0 0 127 0" result="hardAlpha"/>
<feOffset dy="32"/>
<feGaussianBlur stdDeviation="24"/>
<feColorMatrix type="matrix" values="0 0 0 0 0 0 0 0 0 0 0 0 0 0 0 0 0 0 0.08 0"/>
<feBlend mode="normal" in2="BackgroundImageFix" result="effect1_dropShadow_1575_3303"/>
<feBlend mode="normal" in="SourceGraphic" in2="effect1_dropShadow_1575_3303" result="shape"/>
</filter>
<filter id="filter1_i_1575_3303" x="24.8889" y="33.6003" width="263.242" height="227.015" filterUnits="userSpaceOnUse" color-interpolation-filters="sRGB">
<feFlood flood-opacity="0" result="BackgroundImageFix"/>
<feBlend mode="normal" in="SourceGraphic" in2="BackgroundImageFix" result="shape"/>
<feColorMatrix in="SourceAlpha" type="matrix" values="0 0 0 0 0 0 0 0 0 0 0 0 0 0 0 0 0 0 127 0" result="hardAlpha"/>
<feOffset dx="3"/>
<feGaussianBlur stdDeviation="4"/>
<feComposite in2="hardAlpha" operator="arithmetic" k2="-1" k3="1"/>
<feColorMatrix type="matrix" values="0 0 0 0 0.831373 0 0 0 0 0.443137 0 0 0 0 0.168627 0 0 0 0.24 0"/>
<feBlend mode="normal" in2="shape" result="effect1_innerShadow_1575_3303"/>
</filter>
<filter id="filter2_d_1575_3303" x="40.415" y="43.6526" width="232.093" height="205.479" filterUnits="userSpaceOnUse" color-interpolation-filters="sRGB">
<feFlood flood-opacity="0" result="BackgroundImageFix"/>
<feColorMatrix in="SourceAlpha" type="matrix" values="0 0 0 0 0 0 0 0 0 0 0 0 0 0 0 0 0 0 127 0" result="hardAlpha"/>
<feOffset dx="-1" dy="6"/>
<feColorMatrix type="matrix" values="0 0 0 0 0.9125 0 0 0 0 0.9125 0 0 0 0 0.9125 0 0 0 1 0"/>
<feBlend mode="normal" in2="BackgroundImageFix" result="effect1_dropShadow_1575_3303"/>
<feBlend mode="normal" in="SourceGraphic" in2="effect1_dropShadow_1575_3303" result="shape"/>
</filter>
<filter id="filter3_i_1575_3303" x="81.7964" y="14.6475" width="106.937" height="52.0249" filterUnits="userSpaceOnUse" color-interpolation-filters="sRGB">
<feFlood flood-opacity="0" result="BackgroundImageFix"/>
<feBlend mode="normal" in="SourceGraphic" in2="BackgroundImageFix" result="shape"/>
<feColorMatrix in="SourceAlpha" type="matrix" values="0 0 0 0 0 0 0 0 0 0 0 0 0 0 0 0 0 0 127 0" result="hardAlpha"/>
<feOffset dx="7" dy="-9"/>
<feGaussianBlur stdDeviation="4"/>
<feComposite in2="hardAlpha" operator="arithmetic" k2="-1" k3="1"/>
<feColorMatrix type="matrix" values="0 0 0 0 0.466447 0 0 0 0 0.260087 0 0 0 0 0.879167 0 0 0 1 0"/>
<feBlend mode="overlay" in2="shape" result="effect1_innerShadow_1575_3303"/>
</filter>
<linearGradient id="paint0_linear_1575_3303" x1="127.891" y1="14.2613" x2="207.801" y2="242.366" gradientUnits="userSpaceOnUse">
<stop stop-opacity="0.04"/>
<stop offset="1" stop-opacity="0"/>
</linearGradient>
</defs>
</svg>
