<svg width="375" height="812" viewBox="0 0 375 812" fill="none" xmlns="http://www.w3.org/2000/svg">
<rect width="376" height="812" fill="#7F3DFF"/>
<path d="M76.619 404.531H67.9087C67.7496 403.404 67.4248 402.403 66.9343 401.528C66.4438 400.64 65.814 399.884 65.0451 399.261C64.2762 398.638 63.3879 398.161 62.3803 397.83C61.386 397.498 60.3055 397.332 59.1388 397.332C57.0309 397.332 55.1947 397.856 53.6303 398.903C52.0659 399.937 50.8529 401.449 49.9911 403.438C49.1294 405.413 48.6985 407.812 48.6985 410.636C48.6985 413.54 49.1294 415.979 49.9911 417.955C50.8661 419.93 52.0858 421.421 53.6502 422.429C55.2146 423.437 57.0243 423.94 59.0792 423.94C60.2326 423.94 61.2998 423.788 62.2809 423.483C63.2752 423.178 64.1568 422.734 64.9258 422.151C65.6947 421.554 66.3311 420.831 66.8349 419.983C67.3519 419.134 67.7099 418.167 67.9087 417.08L76.619 417.119C76.3936 418.989 75.8301 420.792 74.9286 422.528C74.0404 424.252 72.8406 425.796 71.3292 427.162C69.8311 428.514 68.0413 429.588 65.9599 430.384C63.8917 431.166 61.5517 431.557 58.94 431.557C55.3074 431.557 52.0593 430.735 49.1957 429.091C46.3453 427.447 44.0915 425.067 42.4343 421.952C40.7904 418.836 39.9684 415.064 39.9684 410.636C39.9684 406.195 40.8036 402.417 42.4741 399.301C44.1445 396.186 46.4116 393.812 49.2752 392.182C52.1389 390.538 55.3604 389.716 58.94 389.716C61.2998 389.716 63.4873 390.047 65.5025 390.71C67.5309 391.373 69.3273 392.341 70.8917 393.614C72.4561 394.873 73.7288 396.418 74.7099 398.247C75.7042 400.077 76.3406 402.171 76.619 404.531ZM96.4357 431.597C93.3467 431.597 90.6753 430.94 88.4215 429.628C86.181 428.302 84.4509 426.459 83.2312 424.099C82.0115 421.726 81.4016 418.975 81.4016 415.847C81.4016 412.691 82.0115 409.934 83.2312 407.574C84.4509 405.201 86.181 403.358 88.4215 402.045C90.6753 400.72 93.3467 400.057 96.4357 400.057C99.5247 400.057 102.19 400.72 104.43 402.045C106.684 403.358 108.421 405.201 109.64 407.574C110.86 409.934 111.47 412.691 111.47 415.847C111.47 418.975 110.86 421.726 109.64 424.099C108.421 426.459 106.684 428.302 104.43 429.628C102.19 430.94 99.5247 431.597 96.4357 431.597ZM96.4755 425.034C97.8808 425.034 99.0541 424.636 99.9954 423.841C100.937 423.032 101.646 421.932 102.123 420.54C102.614 419.148 102.859 417.563 102.859 415.787C102.859 414.01 102.614 412.426 102.123 411.034C101.646 409.642 100.937 408.542 99.9954 407.733C99.0541 406.924 97.8808 406.52 96.4755 406.52C95.0569 406.52 93.8638 406.924 92.896 407.733C91.9414 408.542 91.2189 409.642 90.7283 411.034C90.2511 412.426 90.0124 414.01 90.0124 415.787C90.0124 417.563 90.2511 419.148 90.7283 420.54C91.2189 421.932 91.9414 423.032 92.896 423.841C93.8638 424.636 95.0569 425.034 96.4755 425.034ZM142.393 409.165L134.637 409.642C134.505 408.979 134.22 408.383 133.782 407.852C133.345 407.309 132.768 406.878 132.052 406.56C131.35 406.228 130.508 406.062 129.527 406.062C128.214 406.062 127.107 406.341 126.206 406.898C125.304 407.441 124.853 408.17 124.853 409.085C124.853 409.814 125.145 410.431 125.728 410.935C126.312 411.438 127.313 411.843 128.731 412.148L134.26 413.261C137.229 413.871 139.443 414.852 140.902 416.205C142.36 417.557 143.089 419.333 143.089 421.534C143.089 423.536 142.499 425.293 141.319 426.804C140.153 428.315 138.548 429.495 136.507 430.344C134.478 431.179 132.138 431.597 129.487 431.597C125.443 431.597 122.222 430.755 119.822 429.071C117.436 427.374 116.037 425.067 115.626 422.151L123.958 421.713C124.21 422.946 124.82 423.887 125.788 424.537C126.756 425.173 127.995 425.491 129.507 425.491C130.992 425.491 132.185 425.206 133.086 424.636C134.001 424.053 134.465 423.304 134.478 422.389C134.465 421.62 134.14 420.991 133.504 420.5C132.868 419.996 131.886 419.612 130.561 419.347L125.271 418.293C122.288 417.696 120.067 416.662 118.609 415.19C117.164 413.719 116.441 411.843 116.441 409.562C116.441 407.6 116.972 405.91 118.032 404.491C119.106 403.073 120.611 401.979 122.547 401.21C124.495 400.441 126.776 400.057 129.387 400.057C133.245 400.057 136.281 400.872 138.495 402.503C140.723 404.134 142.022 406.354 142.393 409.165ZM164.671 400.455V406.818H146.276V400.455H164.671ZM150.452 393.136H158.924V421.614C158.924 422.396 159.043 423.006 159.282 423.443C159.52 423.867 159.852 424.166 160.276 424.338C160.713 424.51 161.217 424.597 161.787 424.597C162.185 424.597 162.583 424.563 162.98 424.497C163.378 424.418 163.683 424.358 163.895 424.318L165.228 430.622C164.803 430.755 164.207 430.907 163.438 431.08C162.669 431.265 161.734 431.378 160.634 431.418C158.592 431.497 156.802 431.225 155.265 430.602C153.74 429.979 152.553 429.011 151.705 427.699C150.856 426.386 150.439 424.729 150.452 422.727V393.136ZM205.403 401.986C205.244 400.382 204.561 399.135 203.355 398.247C202.148 397.359 200.511 396.915 198.443 396.915C197.038 396.915 195.851 397.114 194.883 397.511C193.915 397.896 193.173 398.433 192.656 399.122C192.152 399.812 191.9 400.594 191.9 401.469C191.874 402.198 192.026 402.834 192.358 403.378C192.702 403.921 193.173 404.392 193.77 404.79C194.366 405.174 195.056 405.512 195.838 405.804C196.62 406.082 197.455 406.321 198.343 406.52L202.002 407.395C203.779 407.793 205.41 408.323 206.895 408.986C208.379 409.649 209.665 410.464 210.752 411.432C211.84 412.4 212.681 413.54 213.278 414.852C213.888 416.165 214.199 417.67 214.213 419.366C214.199 421.859 213.563 424.02 212.304 425.849C211.057 427.666 209.254 429.078 206.895 430.085C204.548 431.08 201.717 431.577 198.403 431.577C195.115 431.577 192.252 431.073 189.812 430.065C187.386 429.058 185.49 427.566 184.125 425.591C182.772 423.602 182.063 421.143 181.997 418.213H190.329C190.422 419.579 190.813 420.719 191.502 421.634C192.205 422.535 193.14 423.218 194.306 423.682C195.486 424.133 196.819 424.358 198.304 424.358C199.762 424.358 201.028 424.146 202.102 423.722C203.189 423.297 204.031 422.707 204.627 421.952C205.224 421.196 205.522 420.328 205.522 419.347C205.522 418.432 205.251 417.663 204.707 417.04C204.177 416.417 203.395 415.886 202.36 415.449C201.34 415.011 200.087 414.614 198.602 414.256L194.167 413.142C190.734 412.307 188.022 411.001 186.034 409.224C184.045 407.448 183.057 405.055 183.071 402.045C183.057 399.58 183.714 397.425 185.039 395.582C186.378 393.74 188.215 392.301 190.548 391.267C192.881 390.233 195.533 389.716 198.502 389.716C201.525 389.716 204.163 390.233 206.417 391.267C208.684 392.301 210.448 393.74 211.707 395.582C212.967 397.425 213.616 399.56 213.656 401.986H205.403ZM228.317 413.341V431H219.846V390.273H228.078V405.844H228.436C229.126 404.041 230.239 402.629 231.777 401.608C233.315 400.574 235.244 400.057 237.564 400.057C239.685 400.057 241.535 400.521 243.113 401.449C244.703 402.364 245.936 403.683 246.811 405.406C247.7 407.116 248.137 409.165 248.124 411.551V431H239.652V413.062C239.666 411.18 239.188 409.715 238.221 408.668C237.266 407.62 235.927 407.097 234.203 407.097C233.05 407.097 232.029 407.342 231.141 407.832C230.266 408.323 229.577 409.039 229.073 409.98C228.582 410.908 228.33 412.028 228.317 413.341ZM263.501 431.577C261.552 431.577 259.815 431.239 258.291 430.562C256.766 429.873 255.56 428.859 254.672 427.52C253.797 426.168 253.359 424.484 253.359 422.469C253.359 420.772 253.671 419.347 254.294 418.193C254.917 417.04 255.765 416.112 256.839 415.409C257.913 414.706 259.133 414.176 260.498 413.818C261.877 413.46 263.322 413.208 264.833 413.062C266.61 412.877 268.042 412.705 269.129 412.545C270.216 412.373 271.005 412.121 271.495 411.79C271.986 411.458 272.231 410.968 272.231 410.318V410.199C272.231 408.939 271.833 407.965 271.038 407.276C270.256 406.586 269.142 406.241 267.697 406.241C266.172 406.241 264.959 406.58 264.058 407.256C263.156 407.919 262.56 408.754 262.268 409.761L254.433 409.125C254.831 407.269 255.613 405.665 256.779 404.312C257.946 402.947 259.451 401.9 261.294 401.17C263.15 400.428 265.297 400.057 267.737 400.057C269.434 400.057 271.058 400.256 272.609 400.653C274.173 401.051 275.559 401.668 276.765 402.503C277.985 403.338 278.946 404.412 279.649 405.724C280.351 407.024 280.703 408.581 280.703 410.398V431H272.669V426.764H272.43C271.94 427.719 271.283 428.561 270.461 429.29C269.639 430.006 268.652 430.569 267.498 430.98C266.345 431.378 265.012 431.577 263.501 431.577ZM265.927 425.73C267.173 425.73 268.274 425.485 269.228 424.994C270.183 424.491 270.932 423.814 271.475 422.966C272.019 422.117 272.291 421.156 272.291 420.082V416.841C272.026 417.013 271.661 417.172 271.197 417.318C270.746 417.451 270.236 417.577 269.666 417.696C269.096 417.802 268.526 417.902 267.956 417.994C267.386 418.074 266.868 418.147 266.404 418.213C265.41 418.359 264.542 418.591 263.799 418.909C263.057 419.227 262.48 419.658 262.069 420.202C261.658 420.732 261.453 421.395 261.453 422.19C261.453 423.344 261.87 424.225 262.706 424.835C263.554 425.432 264.628 425.73 265.927 425.73ZM287.275 431V400.455H295.488V405.784H295.806C296.363 403.888 297.298 402.456 298.61 401.489C299.923 400.508 301.434 400.017 303.145 400.017C303.569 400.017 304.026 400.044 304.517 400.097C305.007 400.15 305.438 400.223 305.809 400.315V407.832C305.412 407.713 304.861 407.607 304.159 407.514C303.456 407.421 302.813 407.375 302.23 407.375C300.984 407.375 299.87 407.647 298.889 408.19C297.921 408.721 297.152 409.463 296.582 410.418C296.025 411.372 295.747 412.473 295.747 413.719V431H287.275ZM322.688 431.597C319.546 431.597 316.841 430.96 314.574 429.688C312.32 428.402 310.584 426.585 309.364 424.239C308.144 421.879 307.534 419.088 307.534 415.866C307.534 412.724 308.144 409.967 309.364 407.594C310.584 405.221 312.301 403.371 314.515 402.045C316.742 400.72 319.354 400.057 322.35 400.057C324.365 400.057 326.241 400.382 327.978 401.031C329.728 401.668 331.252 402.629 332.551 403.915C333.864 405.201 334.885 406.818 335.614 408.767C336.343 410.703 336.708 412.97 336.708 415.568V417.895H310.915V412.645H328.733C328.733 411.425 328.468 410.345 327.938 409.403C327.408 408.462 326.672 407.726 325.73 407.196C324.802 406.652 323.722 406.381 322.489 406.381C321.203 406.381 320.063 406.679 319.069 407.276C318.087 407.859 317.319 408.648 316.762 409.642C316.205 410.623 315.92 411.717 315.907 412.923V417.915C315.907 419.426 316.185 420.732 316.742 421.832C317.312 422.933 318.114 423.781 319.148 424.378C320.182 424.974 321.408 425.273 322.827 425.273C323.768 425.273 324.63 425.14 325.412 424.875C326.194 424.61 326.864 424.212 327.421 423.682C327.978 423.152 328.402 422.502 328.694 421.733L336.529 422.25C336.131 424.133 335.316 425.777 334.083 427.182C332.863 428.574 331.285 429.661 329.35 430.443C327.427 431.212 325.207 431.597 322.688 431.597Z" fill="white"/>
<path d="M147.295 319.273V360H138.684V319.273H147.295ZM162.99 319.273V360H154.38V319.273H162.99ZM170.075 360V319.273H197.518V326.372H178.686V336.077H196.106V343.176H178.686V352.901H197.598V360H170.075ZM212.438 319.273L220.651 333.153H220.969L229.222 319.273H238.946L226.517 339.636L239.225 360H229.321L220.969 346.099H220.651L212.299 360H202.435L215.182 339.636L202.674 319.273H212.438Z" fill="white"/>
<g style="mix-blend-mode:overlay" filter="url(#filter0_f_1447_895)">
<circle cx="37" cy="37" r="37" transform="matrix(-1 0 0 1 192 374)" fill="#FCAC12"/>
</g>
<defs>
<filter id="filter0_f_1447_895" x="86" y="342" width="138" height="138" filterUnits="userSpaceOnUse" color-interpolation-filters="sRGB">
<feFlood flood-opacity="0" result="BackgroundImageFix"/>
<feBlend mode="normal" in="SourceGraphic" in2="BackgroundImageFix" result="shape"/>
<feGaussianBlur stdDeviation="16" result="effect1_foregroundBlur_1447_895"/>
</filter>
</defs>
</svg>
