<svg width="40" height="40" viewBox="0 0 40 40" fill="none" xmlns="http://www.w3.org/2000/svg">
<path d="M36.25 31.2502C35.9185 31.2502 35.6005 31.3819 35.3661 31.6163C35.1317 31.8508 35 32.1687 35 32.5002C34.9983 32.9386 34.8812 33.3689 34.6607 33.7478C34.4402 34.1267 34.1239 34.441 33.7436 34.659C33.3632 34.8771 32.9322 34.9914 32.4938 34.9903C32.0554 34.9892 31.625 34.8728 31.2457 34.6528C30.8665 34.4329 30.5517 34.1171 30.3331 33.737C30.1145 33.357 29.9996 32.9262 30 32.4878C30.0005 32.0494 30.1162 31.6188 30.3356 31.2392C30.555 30.8596 30.8703 30.5444 31.25 30.3252C31.2149 30.5819 31.2604 30.8431 31.3803 31.0727C31.5001 31.3024 31.6883 31.4892 31.9189 31.6072C32.1495 31.7252 32.411 31.7687 32.6674 31.7316C32.9238 31.6946 33.1623 31.5788 33.35 31.4002L35.1125 29.6377C35.2297 29.5215 35.3226 29.3833 35.3861 29.2309C35.4496 29.0786 35.4822 28.9152 35.4822 28.7502C35.4822 28.5852 35.4496 28.4218 35.3861 28.2695C35.3226 28.1172 35.2297 27.9789 35.1125 27.8627L33.35 26.1002C33.2338 25.9831 33.0955 25.8901 32.9432 25.8266C32.7909 25.7631 32.6275 25.7305 32.4625 25.7305C32.2975 25.7305 32.1341 25.7631 31.9818 25.8266C31.8295 25.8901 31.6912 25.9831 31.575 26.1002C31.3853 26.2993 31.2666 26.5555 31.2372 26.8289C31.2078 27.1023 31.2694 27.3778 31.4125 27.6127C30.4931 27.8176 29.6502 28.278 28.9811 28.941C28.3119 29.6039 27.8436 30.4424 27.6301 31.3599C27.4166 32.2773 27.4666 33.2364 27.7744 34.1267C28.0822 35.0169 28.6352 35.8022 29.3697 36.3919C30.1042 36.9816 30.9904 37.3519 31.9261 37.46C32.8619 37.5681 33.8091 37.4097 34.6588 37.003C35.5084 36.5963 36.2259 35.9579 36.7286 35.1612C37.2312 34.3646 37.4986 33.4422 37.5 32.5002C37.5 32.1687 37.3683 31.8508 37.1339 31.6163C36.8995 31.3819 36.5815 31.2502 36.25 31.2502Z" fill="#7F3DFF"/>
<path d="M30.725 6.91271C30.1809 6.57666 29.56 6.38532 28.9211 6.35688C28.2823 6.32844 27.6468 6.46384 27.075 6.75021L26.7 6.93771C26.5389 7.01015 26.3642 7.04761 26.1875 7.04761C26.0108 7.04761 25.8361 7.01015 25.675 6.93771L21.3875 5.26271C20.4965 4.90787 19.5035 4.90787 18.6125 5.26271L14.325 6.97521C14.1639 7.04765 13.9892 7.08511 13.8125 7.08511C13.6358 7.08511 13.4611 7.04765 13.3 6.97521L12.925 6.78771C12.3565 6.50384 11.7252 6.36909 11.0903 6.39611C10.4554 6.42313 9.83785 6.61103 9.29551 6.94218C8.75318 7.27333 8.30389 7.73686 7.98982 8.28926C7.67575 8.84166 7.5072 9.46481 7.5 10.1002V28.7502C7.5 30.4078 8.15848 31.9975 9.33058 33.1696C10.5027 34.3417 12.0924 35.0002 13.75 35.0002H25.475C25.17 34.2015 25.0092 33.3551 25 32.5002V32.4002C25.002 31.054 25.3664 29.7332 26.0548 28.5763C26.7432 27.4194 27.7303 26.4691 28.9125 25.8252C29.0861 25.2218 29.4085 24.6716 29.85 24.2252L30 24.0877C30.2367 23.8792 30.4968 23.6989 30.775 23.5502C31.234 23.317 31.7361 23.1809 32.25 23.1502H32.5V10.1002C32.5 9.46175 32.3369 8.83386 32.0263 8.27605C31.7156 7.71824 31.2677 7.24897 30.725 6.91271ZM22.5 26.2502H15C14.6685 26.2502 14.3505 26.1185 14.1161 25.8841C13.8817 25.6497 13.75 25.3317 13.75 25.0002C13.75 24.6687 13.8817 24.3507 14.1161 24.1163C14.3505 23.8819 14.6685 23.7502 15 23.7502H22.5C22.8315 23.7502 23.1495 23.8819 23.3839 24.1163C23.6183 24.3507 23.75 24.6687 23.75 25.0002C23.75 25.3317 23.6183 25.6497 23.3839 25.8841C23.1495 26.1185 22.8315 26.2502 22.5 26.2502ZM25 18.7502H15C14.6685 18.7502 14.3505 18.6185 14.1161 18.3841C13.8817 18.1497 13.75 17.8317 13.75 17.5002C13.75 17.1687 13.8817 16.8507 14.1161 16.6163C14.3505 16.3819 14.6685 16.2502 15 16.2502H25C25.3315 16.2502 25.6495 16.3819 25.8839 16.6163C26.1183 16.8507 26.25 17.1687 26.25 17.5002C26.25 17.8317 26.1183 18.1497 25.8839 18.3841C25.6495 18.6185 25.3315 18.7502 25 18.7502Z" fill="#7F3DFF"/>
</svg>
