<svg width="32" height="32" viewBox="0 0 32 32" fill="none" xmlns="http://www.w3.org/2000/svg">
<path d="M16 16C19.3137 16 22 13.3137 22 10C22 6.68629 19.3137 4 16 4C12.6863 4 10 6.68629 10 10C10 13.3137 12.6863 16 16 16Z" fill="#7F3DFF"/>
<path d="M19 17.9299H13C11.1435 17.9299 9.36301 18.6674 8.05025 19.9802C6.7375 21.2929 6 23.0734 6 24.9299C6 25.7256 6.31607 26.4886 6.87868 27.0513C7.44129 27.6139 8.20435 27.9299 9 27.9299H23C23.7956 27.9299 24.5587 27.6139 25.1213 27.0513C25.6839 26.4886 26 25.7256 26 24.9299C26 23.0734 25.2625 21.2929 23.9497 19.9802C22.637 18.6674 20.8565 17.9299 19 17.9299Z" fill="#7F3DFF"/>
</svg>
