<svg width="32" height="32" viewBox="0 0 32 32" fill="none" xmlns="http://www.w3.org/2000/svg">
<path d="M12.59 25.4898C12.4577 25.4892 12.3268 25.4624 12.205 25.4109C12.0831 25.3595 11.9726 25.2843 11.88 25.1898C11.6938 25.0024 11.5892 24.749 11.5892 24.4848C11.5892 24.2206 11.6938 23.9672 11.88 23.7798L17.54 18.1198C18.1018 17.5573 18.4174 16.7948 18.4174 15.9998C18.4174 15.2048 18.1018 14.4423 17.54 13.8798L11.88 8.21979C11.7162 8.02849 11.6306 7.78242 11.6403 7.53074C11.65 7.27906 11.7544 7.04032 11.9325 6.86223C12.1106 6.68414 12.3493 6.5798 12.601 6.57008C12.8526 6.56036 13.0987 6.64597 13.29 6.80979L19 12.4598C19.4657 12.9242 19.8351 13.476 20.0872 14.0835C20.3392 14.6909 20.469 15.3421 20.469 15.9998C20.469 16.6575 20.3392 17.3087 20.0872 17.9161C19.8351 18.5236 19.4657 19.0753 19 19.5398L13.34 25.1898C13.2428 25.2892 13.1258 25.3672 12.9967 25.4189C12.8675 25.4705 12.729 25.4947 12.59 25.4898Z" fill="#FBFBFB"/>
</svg>
