<svg width="40" height="40" viewBox="0 0 40 40" fill="none" xmlns="http://www.w3.org/2000/svg">
<path d="M33.7501 17.5001H31.8626C31.5852 17.5119 31.3119 17.4311 31.0855 17.2704C30.8592 17.1097 30.6928 16.8783 30.6126 16.6126L28.5126 9.45006C28.1243 8.1591 27.3291 7.02827 26.2455 6.22629C25.162 5.42431 23.8481 4.99417 22.5001 5.00006H12.1376C10.8894 5.00035 9.66991 5.37436 8.63619 6.0739C7.60247 6.77344 6.80189 7.76647 6.33757 8.92506L2.77507 17.8376C2.59059 18.2811 2.49708 18.7572 2.50007 19.2376V25.0001C2.50011 26.4647 3.01452 27.8828 3.95348 29.0068C4.89245 30.1308 6.19635 30.8894 7.63757 31.1501C7.89718 32.2342 8.51163 33.2004 9.3833 33.8953C10.255 34.5902 11.3339 34.9739 12.4485 34.9854C13.5632 34.9969 14.6498 34.6355 15.5356 33.9587C16.4214 33.282 17.0557 32.3286 17.3376 31.2501H22.6626C22.9422 32.3201 23.5687 33.2671 24.4441 33.9431C25.3194 34.619 26.3941 34.9857 27.5001 34.9857C28.606 34.9857 29.6807 34.619 30.5561 33.9431C31.4314 33.2671 32.0579 32.3201 32.3376 31.2501H33.7501C34.7446 31.2501 35.6985 30.855 36.4017 30.1517C37.105 29.4484 37.5001 28.4946 37.5001 27.5001V21.2501C37.5001 20.2555 37.105 19.3017 36.4017 18.5984C35.6985 17.8951 34.7446 17.5001 33.7501 17.5001ZM12.5001 32.5001C12.0056 32.5001 11.5223 32.3534 11.1111 32.0787C10.7 31.804 10.3796 31.4136 10.1904 30.9568C10.0012 30.5 9.95164 29.9973 10.0481 29.5123C10.1446 29.0274 10.3827 28.5819 10.7323 28.2323C11.0819 27.8827 11.5274 27.6446 12.0123 27.5481C12.4973 27.4516 13 27.5011 13.4568 27.6904C13.9136 27.8796 14.304 28.2 14.5787 28.6111C14.8534 29.0223 15.0001 29.5056 15.0001 30.0001C15.0001 30.6631 14.7367 31.299 14.2678 31.7678C13.799 32.2367 13.1631 32.5001 12.5001 32.5001ZM18.7501 17.5001H5.58757L8.65007 9.86256C8.92796 9.16481 9.40895 8.56659 10.0308 8.14536C10.6526 7.72414 11.3865 7.49933 12.1376 7.50006H18.7501V17.5001ZM21.2501 17.5001V7.50006H22.5001C23.3125 7.49305 24.1053 7.7501 24.759 8.23253C25.4128 8.71496 25.8922 9.39666 26.1251 10.1751L28.2626 17.3251C28.2822 17.3855 28.3073 17.4441 28.3376 17.5001H21.2501ZM27.5001 32.5001C27.0056 32.5001 26.5223 32.3534 26.1111 32.0787C25.7 31.804 25.3796 31.4136 25.1904 30.9568C25.0012 30.5 24.9516 29.9973 25.0481 29.5123C25.1446 29.0274 25.3827 28.5819 25.7323 28.2323C26.0819 27.8827 26.5274 27.6446 27.0123 27.5481C27.4973 27.4516 28 27.5011 28.4568 27.6904C28.9136 27.8796 29.304 28.2 29.5787 28.6111C29.8534 29.0223 30.0001 29.5056 30.0001 30.0001C30.0001 30.6631 29.7367 31.299 29.2678 31.7678C28.799 32.2367 28.1631 32.5001 27.5001 32.5001ZM35.0001 25.0001H33.7501C33.4185 25.0001 33.1006 24.8684 32.8662 24.6339C32.6318 24.3995 32.5001 24.0816 32.5001 23.7501C32.5001 23.4185 32.6318 23.1006 32.8662 22.8662C33.1006 22.6318 33.4185 22.5001 33.7501 22.5001H35.0001V25.0001Z" fill="#0077FF"/>
</svg>
