<svg width="32" height="32" viewBox="0 0 32 32" fill="none" xmlns="http://www.w3.org/2000/svg">
<path d="M19.41 25.4898C19.1462 25.486 18.8946 25.3782 18.71 25.1898L13.05 19.5398C12.5844 19.0753 12.2149 18.5236 11.9629 17.9161C11.7108 17.3087 11.5811 16.6575 11.5811 15.9998C11.5811 15.3421 11.7108 14.6909 11.9629 14.0835C12.2149 13.476 12.5844 12.9242 13.05 12.4598L18.71 6.80979C18.9013 6.64597 19.1474 6.56036 19.399 6.57008C19.6507 6.5798 19.8895 6.68414 20.0676 6.86223C20.2457 7.04032 20.35 7.27906 20.3597 7.53074C20.3694 7.78242 20.2838 8.02849 20.12 8.21979L14.46 13.8798C13.8982 14.4423 13.5826 15.2048 13.5826 15.9998C13.5826 16.7948 13.8982 17.5573 14.46 18.1198L20.12 23.7798C20.3062 23.9672 20.4108 24.2206 20.4108 24.4848C20.4108 24.749 20.3062 25.0024 20.12 25.1898C20.0274 25.2843 19.9169 25.3595 19.7951 25.4109C19.6732 25.4624 19.5423 25.4892 19.41 25.4898Z" fill="#FBFBFB"/>
</svg>
