<svg width="22" height="22" viewBox="0 0 22 22" fill="none" xmlns="http://www.w3.org/2000/svg">
<path d="M12.0119 10.0303L12.0119 1.90691C12.0227 1.76746 12.0045 1.62728 11.9586 1.49518C11.9126 1.36307 11.8398 1.24189 11.7448 1.13925C11.6498 1.0366 11.5346 0.954701 11.4064 0.89869C11.2783 0.84268 11.1399 0.813767 11 0.813767C10.8602 0.813767 10.7218 0.84268 10.5936 0.89869C10.4655 0.954701 10.3503 1.0366 10.2553 1.13925C10.1602 1.24189 10.0875 1.36307 10.0415 1.49518C9.99556 1.62728 9.97741 1.76746 9.9882 1.90691L9.9882 10.0303L1.86479 10.0303C1.60994 10.05 1.37192 10.1652 1.19829 10.3528C1.02466 10.5404 0.928208 10.7866 0.928208 11.0422C0.928208 11.2978 1.02466 11.544 1.19829 11.7315C1.37192 11.9191 1.60994 12.0343 1.86479 12.054L9.9882 12.054L9.9882 20.1774C9.98899 20.4455 10.0959 20.7024 10.2854 20.892C10.475 21.0816 10.7319 21.1884 11 21.1892C11.2681 21.1884 11.525 21.0816 11.7146 20.892C11.9042 20.7024 12.0111 20.4455 12.0119 20.1774L12.0119 12.054L20.1353 12.054C20.4034 12.0532 20.6603 11.9463 20.8499 11.7568C21.0395 11.5672 21.1463 11.3103 21.1471 11.0422C21.1463 10.774 21.0395 10.5171 20.8499 10.3276C20.6603 10.138 20.4034 10.0311 20.1353 10.0303L12.0119 10.0303Z" fill="#464A4D"/>
</svg>
