<svg width="32" height="32" viewBox="0 0 32 32" fill="none" xmlns="http://www.w3.org/2000/svg">
<path d="M17.41 16L23.07 10.34C23.1746 10.2503 23.2597 10.14 23.3197 10.016C23.3797 9.89189 23.4134 9.75676 23.4188 9.61904C23.4241 9.48132 23.4009 9.34399 23.3506 9.21567C23.3003 9.08734 23.2241 8.97079 23.1266 8.87334C23.0291 8.77588 22.9126 8.69963 22.7843 8.64935C22.656 8.59908 22.5186 8.57587 22.3809 8.58119C22.2432 8.58651 22.108 8.62024 21.984 8.68026C21.8599 8.74029 21.7496 8.82531 21.66 8.92999L16 14.59L10.34 8.92999C10.1487 8.76616 9.90258 8.68056 9.6509 8.69028C9.39922 8.7 9.16048 8.80433 8.98239 8.98243C8.8043 9.16052 8.69996 9.39926 8.69024 9.65093C8.68052 9.90261 8.76613 10.1487 8.92995 10.34L14.59 16L8.92995 21.66C8.7437 21.8474 8.63916 22.1008 8.63916 22.365C8.63916 22.6292 8.7437 22.8826 8.92995 23.07C9.11732 23.2562 9.37077 23.3608 9.63495 23.3608C9.89914 23.3608 10.1526 23.2562 10.34 23.07L16 17.41L21.66 23.07C21.8473 23.2562 22.1008 23.3608 22.365 23.3608C22.6291 23.3608 22.8826 23.2562 23.07 23.07C23.2562 22.8826 23.3607 22.6292 23.3607 22.365C23.3607 22.1008 23.2562 21.8474 23.07 21.66L17.41 16Z" fill="black"/>
</svg>
