<svg width="40" height="40" viewBox="0 0 40 40" fill="none" xmlns="http://www.w3.org/2000/svg">
<path d="M28.8375 17.4249C27.9854 16.562 27.0077 15.8329 25.9375 15.2624C25.6576 15.1058 25.3697 14.964 25.075 14.8374C24.4808 14.5687 23.8664 14.3472 23.2375 14.1749L22.6375 14.0374C22.2 13.9499 21.775 13.8874 21.3875 13.8374H20.8H20.5C20.1796 13.8127 19.8579 13.8127 19.5375 13.8374H19.2625H18.8H18.625C18.2048 13.8735 17.7873 13.9361 17.375 14.0249L16.7875 14.1624C16.1641 14.334 15.5541 14.5513 14.9625 14.8124C14.6625 14.9499 14.3625 15.0874 14.0875 15.2374C12.0966 16.3062 10.4327 17.8947 9.27275 19.8338C8.11278 21.773 7.50014 23.9903 7.5 26.2499V29.9999C7.5 31.6575 8.15848 33.2472 9.33058 34.4193C10.5027 35.5914 12.0924 36.2499 13.75 36.2499H26.25C27.9076 36.2499 29.4973 35.5914 30.6694 34.4193C31.8415 33.2472 32.5 31.6575 32.5 29.9999V26.2499C32.5077 24.6092 32.1876 22.9835 31.5587 21.4681C30.9298 19.9526 30.0046 18.5781 28.8375 17.4249ZM19.375 23.7499H20.625C21.4538 23.667 22.2816 23.9168 22.9262 24.4442C23.5709 24.9717 23.9796 25.7336 24.0625 26.5624C24.1454 27.3912 23.8956 28.219 23.3682 28.8636C22.8407 29.5083 22.0788 29.917 21.25 29.9999C21.25 30.3314 21.1183 30.6494 20.8839 30.8838C20.6495 31.1182 20.3315 31.2499 20 31.2499C19.6685 31.2499 19.3505 31.1182 19.1161 30.8838C18.8817 30.6494 18.75 30.3314 18.75 29.9999H17.5C17.1685 29.9999 16.8505 29.8682 16.6161 29.6338C16.3817 29.3994 16.25 29.0814 16.25 28.7499C16.25 28.4184 16.3817 28.1004 16.6161 27.866C16.8505 27.6316 17.1685 27.4999 17.5 27.4999H20.625C20.7908 27.4999 20.9497 27.4341 21.0669 27.3168C21.1842 27.1996 21.25 27.0407 21.25 26.8749C21.25 26.7091 21.1842 26.5502 21.0669 26.433C20.9497 26.3158 20.7908 26.2499 20.625 26.2499H19.375C18.6 26.2507 17.8524 25.9635 17.2773 25.444C16.7022 24.9246 16.3406 24.21 16.2627 23.439C16.1848 22.6679 16.3962 21.8954 16.8558 21.2715C17.3155 20.6475 17.9905 20.2166 18.75 20.0624V19.9999C18.75 19.6684 18.8817 19.3504 19.1161 19.116C19.3505 18.8816 19.6685 18.7499 20 18.7499C20.3315 18.7499 20.6495 18.8816 20.8839 19.116C21.1183 19.3504 21.25 19.6684 21.25 19.9999H22.5C22.8315 19.9999 23.1495 20.1316 23.3839 20.366C23.6183 20.6004 23.75 20.9184 23.75 21.2499C23.75 21.5814 23.6183 21.8994 23.3839 22.1338C23.1495 22.3682 22.8315 22.4999 22.5 22.4999H19.375C19.2092 22.4999 19.0503 22.5658 18.9331 22.683C18.8158 22.8002 18.75 22.9591 18.75 23.1249C18.75 23.2907 18.8158 23.4496 18.9331 23.5668C19.0503 23.6841 19.2092 23.7499 19.375 23.7499Z" fill="#00A86B"/>
<path d="M26.8249 9.51231L26.3374 12.6623L26.0999 12.4998C25.4052 12.1841 24.6863 11.925 23.9499 11.7248C22.6599 11.3931 21.3318 11.2334 19.9999 11.2498C18.6662 11.2541 17.3385 11.4306 16.0499 11.7748C15.3229 11.9786 14.6125 12.2376 13.9249 12.5498L13.6624 12.6748L13.1749 9.51231C13.0747 8.85874 13.1491 8.19029 13.3905 7.57473C13.6319 6.95917 14.0317 6.41838 14.5495 6.00718C15.0673 5.59599 15.6846 5.32902 16.3389 5.23333C16.9931 5.13764 17.6611 5.21663 18.2749 5.46231L19.5249 5.96231C19.8219 6.08059 20.1529 6.08059 20.4499 5.96231L21.6999 5.46231C22.3138 5.21663 22.9817 5.13764 23.636 5.23333C24.2902 5.32902 24.9075 5.59599 25.4253 6.00718C25.9431 6.41838 26.343 6.95917 26.5844 7.57473C26.8258 8.19029 26.9002 8.85874 26.7999 9.51231H26.8249Z" fill="#00A86B"/>
</svg>
