<svg width="33" height="32" viewBox="0 0 33 32" fill="none" xmlns="http://www.w3.org/2000/svg">
<path d="M16.5 4C14.1266 4 11.8066 4.70379 9.83316 6.02236C7.85977 7.34094 6.3217 9.21509 5.41345 11.4078C4.5052 13.6005 4.26756 16.0133 4.73058 18.3411C5.1936 20.6689 6.33649 22.8071 8.01472 24.4853C9.69295 26.1635 11.8312 27.3064 14.1589 27.7694C16.4867 28.2324 18.8995 27.9948 21.0922 27.0866C23.2849 26.1783 25.1591 24.6402 26.4776 22.6668C27.7962 20.6935 28.5 18.3734 28.5 16C28.5 12.8174 27.2357 9.76515 24.9853 7.51472C22.7348 5.26428 19.6826 4 16.5 4ZM15.5 11C15.5 10.7348 15.6054 10.4804 15.7929 10.2929C15.9804 10.1054 16.2348 10 16.5 10C16.7652 10 17.0196 10.1054 17.2071 10.2929C17.3946 10.4804 17.5 10.7348 17.5 11V17C17.5 17.2652 17.3946 17.5196 17.2071 17.7071C17.0196 17.8946 16.7652 18 16.5 18C16.2348 18 15.9804 17.8946 15.7929 17.7071C15.6054 17.5196 15.5 17.2652 15.5 17V11ZM16.5 22C16.3022 22 16.1089 21.9414 15.9444 21.8315C15.78 21.7216 15.6518 21.5654 15.5761 21.3827C15.5004 21.2 15.4806 20.9989 15.5192 20.8049C15.5578 20.6109 15.653 20.4327 15.7929 20.2929C15.9328 20.153 16.1109 20.0578 16.3049 20.0192C16.4989 19.9806 16.7 20.0004 16.8827 20.0761C17.0654 20.1518 17.2216 20.28 17.3315 20.4444C17.4414 20.6089 17.5 20.8022 17.5 21C17.5 21.2652 17.3946 21.5196 17.2071 21.7071C17.0196 21.8946 16.7652 22 16.5 22Z" fill="white"/>
</svg>
