<svg width="32" height="32" viewBox="0 0 32 32" fill="none" xmlns="http://www.w3.org/2000/svg">
<path d="M23 14L9 14C7.67392 14 6.40215 14.5268 5.46447 15.4645C4.52678 16.4021 4 17.6739 4 19V25C4 26.3261 4.52678 27.5979 5.46447 28.5355C6.40215 29.4732 7.67392 30 9 30H23C24.3261 30 25.5979 29.4732 26.5355 28.5355C27.4732 27.5979 28 26.3261 28 25V19C28 17.6739 27.4732 16.4021 26.5355 15.4645C25.5979 14.5268 24.3261 14 23 14ZM16 26C15.2089 26 14.4355 25.7654 13.7777 25.3259C13.1199 24.8864 12.6072 24.2616 12.3045 23.5307C12.0017 22.7998 11.9225 21.9956 12.0769 21.2196C12.2312 20.4437 12.6122 19.731 13.1716 19.1716C13.731 18.6122 14.4437 18.2312 15.2196 18.0769C15.9956 17.9225 16.7998 18.0017 17.5307 18.3045C18.2616 18.6072 18.8864 19.1199 19.3259 19.7777C19.7654 20.4355 20 21.2089 20 22C20 23.0609 19.5786 24.0783 18.8284 24.8284C18.0783 25.5786 17.0609 26 16 26Z" fill="#FBFBFB"/>
<path d="M16 24C17.1046 24 18 23.1046 18 22C18 20.8954 17.1046 20 16 20C14.8954 20 14 20.8954 14 22C14 23.1046 14.8954 24 16 24Z" fill="#FBFBFB"/>
<path d="M16.71 2.28994C16.617 2.19621 16.5064 2.12182 16.3845 2.07105C16.2627 2.02028 16.132 1.99414 16 1.99414C15.868 1.99414 15.7372 2.02028 15.6154 2.07105C15.4935 2.12182 15.3829 2.19621 15.29 2.28994L11.05 6.53994C10.8564 6.72692 10.745 6.98315 10.7403 7.25226C10.7356 7.52138 10.838 7.78133 11.025 7.97494C11.2119 8.16855 11.4682 8.27995 11.7373 8.28464C12.0064 8.28933 12.2664 8.18692 12.46 7.99994L15 5.40994V10.9999C15 11.2652 15.1053 11.5195 15.2929 11.707C15.4804 11.8946 15.7347 11.9999 16 11.9999C16.2652 11.9999 16.5195 11.8946 16.7071 11.707C16.8946 11.5195 17 11.2652 17 10.9999V5.40994L19.54 7.99994C19.7262 8.18468 19.9776 8.28883 20.24 8.28994C20.3799 8.29755 20.5199 8.27567 20.6508 8.22571C20.7817 8.17575 20.9007 8.09883 21 7.99994C21.1862 7.81258 21.2908 7.55912 21.2908 7.29494C21.2908 7.03075 21.1862 6.7773 21 6.58994L16.71 2.28994Z" fill="#FBFBFB"/>
</svg>
